<svg width="53" height="53" viewBox="0 0 53 53" fill="none" xmlns="http://www.w3.org/2000/svg">
<path d="M10.5583 22.7208C14.7583 30.975 21.525 37.7125 29.7792 41.9417L36.1958 35.525C36.9833 34.7375 38.15 34.475 39.1708 34.825C42.4375 35.9042 45.9667 36.4875 49.5833 36.4875C51.1875 36.4875 52.5 37.8 52.5 39.4042V49.5833C52.5 51.1875 51.1875 52.5 49.5833 52.5C22.1958 52.5 0 30.3042 0 2.91667C0 1.3125 1.3125 0 2.91667 0H13.125C14.7292 0 16.0417 1.3125 16.0417 2.91667C16.0417 6.5625 16.625 10.0625 17.7042 13.3292C18.025 14.35 17.7917 15.4875 16.975 16.3042L10.5583 22.7208Z" fill="#EB3223"/>
</svg>
